# xmcd CD database file
#
# Track frame offsets:
#	150
#	9055
#	19595
#	29970
#	39747
#	46457
#	54922
#	68862
#	84840
#	97462
#	113755
#	125120
#	135922
#	148917
#	159762
#	171052
#	182627
#	196162
#
# Disc length: 2787 seconds
#
# Revision: 2
# Processed by: cddbd v1.5.2PL0 Copyright (c) Steve Scherf et al.
# Submitted via: CDex 1.70beta3
#
DISCID=ef0ae112
DTITLE=Various Artist - 甦るヒーロー ウルトラマン大全集
DYEAR=1989
DGENRE=Anime
TTITLE0=コーロ・ステルラ／みすず児童合唱団/ウルトラマンの歌
TTITLE1=コーロ・ステルラ／みすず児童合唱団/特捜隊の歌
TTITLE2=コーロ・ステルラ／みすず児童合唱団/進め!ウルトラマン
TTITLE3=ジ・エコーズ／みすず児童合唱団/ウルトラセブンの歌
TTITLE4=マイスタージンガー/ウルトラ警備隊
TTITLE5=ジ・エコーズ/ULTRA7
TTITLE6=若小内悦郎／少年少女合唱団みずうみ/帰ってきたウルトラマン
TTITLE7=若小内悦郎／少年少女合唱団みずうみ/MATチームの歌
TTITLE8=ハニーナイツ／みすず児童合唱団/ウルトラマンエース
TTITLE9=ハニーナイツ／みすず児童合唱団/TACの歌
TTITLE10=沢木順／少年少女合唱団みずうみ/ウルトラマンタロウ
TTITLE11=沢木順／少年少女合唱団みずうみ/ウルトラ六兄弟
TTITLE12=外山浩爾／少年少女合唱団みずうみ/ウルトラマンレオ
TTITLE13=外山浩爾／少年少女合唱団みずうみ/戦え!ウルトラマンレオ
TTITLE14=外山浩爾／少年少女合唱団みずうみ/MACのマーチ
TTITLE15=鈴木康夫/ザ・ウルトラマン
TTITLE16=田村しげる/ウルトラマン80
TTITLE17=みすず児童合唱団/大怪獣の歌
EXTD=YEAR: 1989
EXTT0=
EXTT1=
EXTT2=
EXTT3=
EXTT4=
EXTT5=
EXTT6=
EXTT7=
EXTT8=
EXTT9=
EXTT10=
EXTT11=
EXTT12=
EXTT13=
EXTT14=
EXTT15=
EXTT16=
EXTT17=
PLAYORDER=
